<?xml version="1.0" encoding="UTF-8"?>
<svg width="9px" height="8px" viewBox="0 0 9 8" version="1.1" xmlns="http://www.w3.org/2000/svg" xmlns:xlink="http://www.w3.org/1999/xlink">
    <!-- Generator: Sketch 63 (92445) - https://sketch.com -->
    <title>箭头@1x</title>
    <desc>Created with Sketch.</desc>
    <g id="页面-2" stroke="none" stroke-width="1" fill="none" fill-rule="evenodd">
        <g id="1.2-spec" transform="translate(-1180.000000, -369.000000)" fill="#6155FF" fill-rule="nonzero">
            <g id="编组-2备份" transform="translate(1171.000000, 340.000000)">
                <path d="M15.6361582,33.0350566 L15.7161618,33.0295564 C15.7324549,33.0295564 15.7456631,33.0163485 15.7456631,33.0000556 C15.7456631,32.9837627 15.7324549,32.9705547 15.7161618,32.9705547 L15.6361582,32.9645545 L10.9659479,32.3725369 C10.9000266,32.3642515 10.8401145,32.3300679 10.7994404,32.2775341 L9.56138466,30.6744865 C9.50372393,30.5996143 9.48535056,30.501681 9.51195183,30.4110007 C9.53855309,30.3203205 9.60692014,30.2478319 9.69589072,30.2159729 L11.6449785,29.5174522 C11.7274529,29.4878049 11.8188253,29.4962279 11.8944897,29.5404529 L17.3542355,32.745548 C17.4445433,32.7986301 17.5,32.8955537 17.5,33.0003056 C17.5,33.1050574 17.4445433,33.201981 17.3542355,33.2550631 L11.8939897,36.4596583 C11.8184583,36.5037301 11.7273049,36.5121497 11.6449785,36.4826589 L9.69589072,35.7841382 C9.60692014,35.7522793 9.53855309,35.6797907 9.51195183,35.5891104 C9.48535056,35.4984302 9.50372393,35.4004969 9.56138466,35.3256246 L10.7999404,33.722577 C10.8406145,33.6700432 10.9005267,33.6358597 10.9664479,33.6275742 L15.6366582,33.0355566 L15.6361582,33.0350566 Z" id="箭头" transform="translate(13.500000, 33.000000) rotate(-360.000000) translate(-13.500000, -33.000000) "></path>
            </g>
        </g>
    </g>
</svg>