<?xml version="1.0" encoding="UTF-8"?>
<svg width="10px" height="10px" viewBox="0 0 10 10" version="1.1" xmlns="http://www.w3.org/2000/svg" xmlns:xlink="http://www.w3.org/1999/xlink">
    <!-- Generator: Sketch 63 (92445) - https://sketch.com -->
    <title>close</title>
    <desc>Created with Sketch.</desc>
    <g id="页面-2" stroke="none" stroke-width="1" fill="none" fill-rule="evenodd">
        <g id="1.2-spec" transform="translate(-715.000000, -745.000000)" fill="#6E6C88" fill-rule="nonzero">
            <path d="M720.870312,749.998438 L724.851562,746.020313 C725.092187,745.779688 725.092187,745.390625 724.851562,745.151563 C724.610937,744.910938 724.221875,744.910938 723.982812,745.151563 L720,749.128125 L716.017187,745.15 C715.776562,744.909375 715.3875,744.909375 715.148438,745.15 C714.907812,745.390625 714.907812,745.779688 715.148438,746.01875 L719.129687,749.996875 L715.148438,753.976562 C714.907812,754.217188 714.907812,754.60625 715.148438,754.845313 C715.26875,754.965625 715.426562,755.025 715.582812,755.025 C715.740625,755.025 715.896875,754.965625 716.017187,754.845313 L720,750.867188 L723.982812,754.846875 C724.103125,754.967188 724.259375,755.026563 724.417187,755.026563 C724.575,755.026563 724.73125,754.967188 724.851562,754.846875 C725.092187,754.60625 725.092187,754.217188 724.851562,753.978125 L720.870312,749.998438 Z" id="close"></path>
        </g>
    </g>
</svg>